<svg width="17.000000" height="9.000000" viewBox="0 0 17 9" fill="none" xmlns="http://www.w3.org/2000/svg" xmlns:xlink="http://www.w3.org/1999/xlink">
	<desc>
			Created with Pixso.
	</desc>
	<defs/>
	<path id="Vector" d="M16.19 -0.29C16.24 -0.15 16.26 0 16.23 0.14C16.2 0.29 16.13 0.42 16.03 0.53L8.53 8.03C8.46 8.1 8.37 8.15 8.28 8.19C8.19 8.23 8.09 8.25 7.99 8.25C7.9 8.25 7.8 8.23 7.71 8.19C7.62 8.15 7.53 8.1 7.46 8.03L-0.04 0.53C-0.14 0.42 -0.21 0.29 -0.24 0.14C-0.27 0 -0.26 -0.15 -0.2 -0.29C-0.14 -0.43 -0.05 -0.55 0.08 -0.63C0.2 -0.71 0.35 -0.75 0.49 -0.75L15.49 -0.75C15.64 -0.75 15.79 -0.71 15.91 -0.63C16.03 -0.55 16.13 -0.43 16.19 -0.29Z" fill="#FFFFFF" fill-opacity="0.700000" fill-rule="nonzero"/>
</svg>
