<svg width="21.000000" height="14.000000" viewBox="0 0 21 14" fill="none" xmlns="http://www.w3.org/2000/svg" xmlns:xlink="http://www.w3.org/1999/xlink">
	<desc>
			Created with Pixso.
	</desc>
	<defs/>
	<path id="Vector" d="M19.57 2.18C19.46 1.76 19.24 1.37 18.93 1.06C18.62 0.75 18.23 0.53 17.81 0.42C16.25 0 10 0 10 0C10 0 3.74 0 2.18 0.42C1.76 0.53 1.37 0.75 1.06 1.06C0.75 1.37 0.53 1.76 0.42 2.18C0.13 3.77 -0.01 5.38 0 7C-0.01 8.61 0.13 10.22 0.42 11.81C0.53 12.23 0.75 12.62 1.06 12.93C1.37 13.24 1.76 13.46 2.18 13.57C3.74 13.99 10 13.99 10 13.99C10 13.99 16.25 13.99 17.81 13.57C18.23 13.46 18.62 13.24 18.93 12.93C19.24 12.62 19.46 12.23 19.57 11.81C19.86 10.22 20.01 8.61 20 7C20.01 5.38 19.86 3.77 19.57 2.18ZM8 9.99L8 4L13.19 7L8 9.99Z" fill="#FFFFFF" fill-opacity="1.000000" fill-rule="nonzero"/>
</svg>
